# Blender v2.93.5 OBJ File: ''
# www.blender.org
mtllib shield.mtl
o shield.001
v -54.994232 -23.698193 -8.958988
v -56.859360 15.829357 -9.031088
v -24.539734 -1.954663 -3.472133
v -26.963081 -59.917038 -4.271969
v -56.776947 -23.721354 -4.529003
v -28.775627 -59.959888 2.833548
v -26.352272 -1.997498 3.633382
v -58.642075 15.806196 -4.601100
v -56.347809 55.305756 -3.943186
v -54.565094 55.328915 -8.373169
v 0.349326 60.352539 -1.497255
v -0.019199 -7.512185 -2.000318
v -24.203056 60.045288 -3.012547
v -0.489787 -74.724243 7.011274
v -0.126078 -7.710967 7.525350
v -0.381294 -74.356789 -2.575975
v -26.015594 60.002457 4.092974
v 0.243204 60.293243 8.029451
v 54.915039 -24.304081 -7.738437
v 26.389164 -60.211147 -3.679485
v 24.587746 -2.225483 -2.926569
v 57.216919 15.200500 -7.764263
v 56.598579 -24.346348 -3.269958
v 58.900459 15.158230 -3.295781
v 26.241470 -2.287426 4.217440
v 28.042889 -60.273106 3.464521
v 55.344177 54.723030 -7.152622
v 57.027718 54.680763 -2.684141
v 24.924423 59.774467 -2.466978
v 26.578148 59.712528 4.677032
vt 0.473660 0.601785
vt 0.481064 0.720303
vt 0.365656 0.667801
vt 0.373163 0.493874
vt 0.530500 0.603381
vt 0.629096 0.494393
vt 0.636451 0.669657
vt 0.523246 0.722835
vt 0.512673 0.091443
vt 0.564998 0.087053
vt 0.566355 0.185030
vt 0.515080 0.187643
vt 0.511002 0.278375
vt 0.564839 0.275564
vt 0.561352 0.330076
vt 0.512537 0.331267
vt 0.278556 0.855170
vt 0.278556 0.651594
vt 0.365656 0.853784
vt 0.727964 0.450286
vt 0.727965 0.652871
vt 0.512397 0.064431
vt 0.565025 0.062562
vt 0.562326 0.380014
vt 0.513257 0.379281
vt 0.473660 0.838846
vt 0.636451 0.857086
vt 0.530500 0.842284
vt 0.513616 0.395849
vt 0.563973 0.396201
vt 0.278561 0.451072
vt 0.727965 0.858452
vt 0.084323 0.601697
vt 0.184171 0.493831
vt 0.191629 0.667761
vt 0.076966 0.720212
vt 0.924196 0.603399
vt 0.931413 0.722854
vt 0.819082 0.669665
vt 0.826399 0.494402
vt 0.427274 0.084174
vt 0.428325 0.168875
vt 0.377015 0.169441
vt 0.376936 0.085536
vt 0.426271 0.269618
vt 0.427046 0.374356
vt 0.376248 0.375634
vt 0.373732 0.271331
vt 0.191629 0.853745
vt 0.429146 0.063470
vt 0.376462 0.065210
vt 0.429326 0.399020
vt 0.375273 0.398938
vt 0.084323 0.838758
vt 0.819082 0.857095
vt 0.924196 0.842302
vt 0.429125 0.408661
vt 0.374840 0.409176
vn 0.5978 0.0027 -0.8016
vn 0.4207 0.0085 -0.9072
vn 0.3570 0.0107 -0.9341
vn -0.7525 -0.0028 0.6586
vn -0.6126 -0.0005 0.7904
vn -0.6469 -0.0029 0.7626
vn -0.7491 -0.0025 0.6625
vn -0.6574 -0.7517 -0.0518
vn -0.5743 -0.8179 -0.0363
vn -0.7690 -0.6350 -0.0734
vn -0.7685 -0.6348 -0.0804
vn -0.9951 0.0061 -0.0984
vn -0.9933 0.0619 -0.0979
vn 0.0111 0.0074 -0.9999
vn 0.0112 0.0157 -0.9998
vn 0.4132 0.0045 -0.9106
vn -0.0111 -0.0083 0.9999
vn -0.0112 -0.0091 0.9999
vn -0.0052 -0.9997 -0.0251
vn -0.0053 -0.9999 -0.0144
vn -0.1438 0.9896 -0.0052
vn -0.1403 0.9901 -0.0071
vn -0.0493 0.9988 0.0037
vn -0.0948 0.9955 0.0008
vn -0.6434 0.0007 0.7655
vn -0.7540 0.0130 0.6568
vn -0.9939 -0.0497 -0.0987
vn 0.0054 1.0000 0.0067
vn 0.0054 1.0000 0.0071
vn 0.0112 0.0126 -0.9999
vn -0.0111 -0.0074 0.9999
vn -0.5798 0.0092 -0.8147
vn -0.3359 0.0145 -0.9418
vn -0.4003 0.0130 -0.9163
vn 0.7376 -0.0110 0.6751
vn 0.7341 -0.0107 0.6789
vn 0.6297 -0.0100 0.7768
vn 0.5948 -0.0072 0.8038
vn 0.6501 -0.7589 -0.0373
vn 0.7630 -0.6432 -0.0634
vn 0.7634 -0.6435 -0.0563
vn 0.5659 -0.8242 -0.0236
vn 0.9971 -0.0049 -0.0763
vn 0.9958 0.0510 -0.0758
vn 0.9971 -0.0048 -0.0763
vn -0.3928 0.0089 -0.9196
vn 0.1548 0.9879 -0.0019
vn 0.1057 0.9944 0.0030
vn 0.0602 0.9982 0.0049
vn 0.1513 0.9885 -0.0039
vn 0.6262 -0.0063 0.7796
vn 0.7393 0.0048 0.6734
vn 0.9952 -0.0606 -0.0766
vn 0.9952 -0.0607 -0.0766
usemtl 01___Default.001
s 1
f 1/1/1 2/2/1 3/3/2 4/4/3
f 5/5/4 6/6/5 7/7/6 8/8/7
f 4/9/8 6/10/9 5/11/10 1/12/11
f 2/13/12 8/14/12 9/15/13 10/16/13
f 11/17/14 12/18/15 3/3/2 13/19/16
f 6/6/5 14/20/17 15/21/18 7/7/6
f 16/22/19 14/23/20 6/10/9 4/9/8
f 10/16/21 9/15/22 17/24/23 13/25/24
f 2/2/1 10/26/1 13/19/16 3/3/2
f 17/27/25 9/28/26 8/8/7 7/7/6
f 1/12/27 5/11/27 8/14/12 2/13/12
f 11/29/28 13/25/24 17/24/23 18/30/29
f 4/4/3 3/3/2 12/18/15 16/31/30
f 18/32/31 17/27/25 7/7/6 15/21/18
f 19/33/32 20/34/33 21/35/34 22/36/32
f 23/37/35 24/38/36 25/39/37 26/40/38
f 20/41/39 19/42/40 23/43/41 26/44/42
f 22/45/43 27/46/44 28/47/44 24/48/45
f 11/17/14 29/49/46 21/35/34 12/18/15
f 26/40/38 25/39/37 15/21/18 14/20/17
f 16/50/19 20/41/39 26/44/42 14/51/20
f 27/46/47 29/52/48 30/53/49 28/47/50
f 22/36/32 21/35/34 29/49/46 27/54/32
f 30/55/51 25/39/37 24/38/36 28/56/52
f 19/42/53 22/45/43 24/48/45 23/43/54
f 11/57/28 18/58/29 30/53/49 29/52/48
f 20/34/33 16/31/30 12/18/15 21/35/34
f 18/32/31 15/21/18 25/39/37 30/55/51
